<svg xmlns="http://www.w3.org/2000/svg" viewBox="0 0 400 400">
  <defs>
    <!-- Gradientes -->
    <linearGradient id="gradientPrimary" x1="0%" y1="0%" x2="100%" y2="100%">
      <stop offset="0%" stop-color="#36827D" />
      <stop offset="100%" stop-color="#2A6A66" />
    </linearGradient>
    <linearGradient id="gradientSecondary" x1="0%" y1="0%" x2="100%" y2="100%">
      <stop offset="0%" stop-color="#D06B90" />
      <stop offset="100%" stop-color="#B85A7C" />
    </linearGradient>
    <linearGradient id="gradientHighlight" x1="0%" y1="0%" x2="100%" y2="100%">
      <stop offset="0%" stop-color="#3DA5D9" />
      <stop offset="100%" stop-color="#3390BE" />
    </linearGradient>
    <linearGradient id="gradientAccent" x1="0%" y1="0%" x2="100%" y2="100%">
      <stop offset="0%" stop-color="#E87A46" />
      <stop offset="100%" stop-color="#D0693B" />
    </linearGradient>

    <!-- Sombra suave -->
    <filter id="softShadow" x="-20%" y="-20%" width="140%" height="140%">
      <feGaussianBlur in="SourceAlpha" stdDeviation="3" />
      <feOffset dx="2" dy="2" result="offsetblur" />
      <feComponentTransfer>
        <feFuncA type="linear" slope="0.3" />
      </feComponentTransfer>
      <feMerge>
        <feMergeNode />
        <feMergeNode in="SourceGraphic" />
      </feMerge>
    </filter>
  </defs>

  <!-- Conexiones en forma de "E" -->
  <path d="M125,100 L275,100 M125,100 L125,200 M125,200 L125,300 M125,300 L275,300 
           M125,200 L200,200 M200,200 L275,100 M200,200 L275,300"
        stroke="url(#gradientHighlight)"
        stroke-width="12"
        stroke-linecap="round"
        stroke-opacity="0.85"
        filter="url(#softShadow)" />

  <!-- Nodos -->
  <circle cx="125" cy="100" r="24" fill="url(#gradientPrimary)" filter="url(#softShadow)" />
  <circle cx="275" cy="100" r="24" fill="url(#gradientPrimary)" filter="url(#softShadow)" />
  <circle cx="125" cy="200" r="24" fill="url(#gradientPrimary)" filter="url(#softShadow)" />
  <circle cx="200" cy="200" r="30" fill="url(#gradientHighlight)" filter="url(#softShadow)" />
  <circle cx="125" cy="300" r="24" fill="url(#gradientPrimary)" filter="url(#softShadow)" />
  <circle cx="275" cy="300" r="28" fill="url(#gradientSecondary)" filter="url(#softShadow)" />
  <circle cx="200" cy="140" r="12" fill="url(#gradientAccent)" filter="url(#softShadow)" />
</svg>
